<?xml version="1.0" encoding="utf-8"?>
<!-- Generator: Adobe Illustrator 16.0.0, SVG Export Plug-In . SVG Version: 6.00 Build 0)  -->
<!DOCTYPE svg PUBLIC "-//W3C//DTD SVG 1.1//EN" "http://www.w3.org/Graphics/SVG/1.1/DTD/svg11.dtd">
<svg version="1.1" id="Laag_1" xmlns="http://www.w3.org/2000/svg" xmlns:xlink="http://www.w3.org/1999/xlink" x="0px" y="0px"
	 width="960px" height="960px" viewBox="0 -400 960 960" enable-background="new 0 -400 960 960" xml:space="preserve">
<path fill="#F96332" d="M158.688-158.008H87.286c-19.785,0-35.702,15.917-35.702,35.701V32.398H15.883
	c-6.545,0-11.9,5.355-11.9,11.901v71.402c0,6.545,5.355,11.9,11.9,11.9h35.701v154.705c0,19.785,15.917,35.703,35.702,35.703h71.403
	c19.784,0,35.701-15.918,35.701-35.703v-404.614C194.389-142.091,178.473-158.008,158.688-158.008z M944.117,32.398h-35.701
	v-154.706c0-19.784-15.917-35.701-35.702-35.701h-71.401c-19.785,0-35.702,15.917-35.702,35.701v404.614
	c0,19.785,15.917,35.703,35.702,35.703h71.401c19.785,0,35.702-15.918,35.702-35.703V127.602h35.701c6.546,0,11.9-5.355,11.9-11.9
	V44.299C956.018,37.754,950.663,32.398,944.117,32.398z M682.308-253.212h-71.403c-19.784,0-35.7,15.917-35.7,35.702V32.398H384.797
	v-249.909c0-19.784-15.917-35.702-35.702-35.702h-71.403c-19.785,0-35.701,15.917-35.701,35.702v595.022
	c0,19.785,15.917,35.701,35.701,35.701h71.403c19.785,0,35.702-15.916,35.702-35.701v-249.91h190.407v249.91
	c0,19.785,15.916,35.701,35.7,35.701h71.403c19.784,0,35.701-15.916,35.701-35.701v-595.022
	C718.009-237.295,702.092-253.212,682.308-253.212z"/>
</svg>
